<?xml version="1.0" standalone="no"?>
<!DOCTYPE svg PUBLIC "-//W3C//DTD SVG 20010904//EN"
 "http://www.w3.org/TR/2001/REC-SVG-20010904/DTD/svg10.dtd">
<svg version="1.0" xmlns="http://www.w3.org/2000/svg"
 width="1600.000000pt" height="1200.000000pt" viewBox="0 0 1600.000000 1200.000000"
 preserveAspectRatio="xMidYMid meet">

<g transform="translate(0.000000,1200.000000) scale(0.100000,-0.100000)"
fill="#000000" stroke="none">
<path d="M5254 7164 c2 -6 82 -134 178 -285 96 -151 177 -279 181 -286 4 -6
-80 -151 -188 -323 -107 -172 -195 -314 -195 -316 0 -2 75 -4 168 -4 l167 0
24 43 c119 211 205 347 213 335 4 -7 56 -95 115 -195 l108 -183 212 0 c117 0
213 3 213 6 0 3 -8 18 -19 32 -10 15 -91 144 -181 287 -90 143 -173 276 -186
297 l-23 36 55 89 c96 152 281 447 288 461 6 9 -29 12 -157 12 l-164 0 -95
-157 c-52 -87 -98 -157 -103 -157 -5 1 -49 71 -97 155 l-88 154 -215 5 c-152
4 -214 2 -211 -6z"/>
<path d="M8670 6565 l0 -615 175 0 175 0 0 615 0 615 -175 0 -175 0 0 -615z"/>
<path d="M1485 6730 l439 -440 121 118 c66 64 204 200 308 302 l187 185 -137
137 -138 138 -610 0 -610 0 440 -440z"/>
<path d="M2893 7155 c-3 -9 -3 -18 -1 -21 3 -3 8 4 11 16 6 23 -1 27 -10 5z"/>
<path d="M9336 6879 c102 -160 183 -296 181 -303 -3 -7 -89 -147 -191 -311
-102 -164 -186 -302 -186 -306 0 -5 73 -9 163 -9 l163 0 113 190 c62 105 116
190 120 190 3 0 56 -84 117 -187 l110 -188 212 -3 c117 -1 212 0 212 4 0 3
-90 150 -201 326 -132 212 -198 325 -194 336 3 9 80 134 171 279 90 144 164
264 164 267 0 3 -73 6 -162 6 l-163 0 -94 -160 c-52 -88 -97 -160 -100 -160
-4 0 -47 71 -97 158 l-91 157 -216 3 -216 2 185 -291z"/>
<path d="M13598 7163 l-97 -4 -3 -147 -3 -147 -67 -3 -68 -3 0 -109 0 -110 70
0 70 0 0 -245 c0 -222 2 -249 21 -299 25 -70 82 -121 158 -143 42 -12 83 -14
180 -10 69 2 134 8 144 12 15 6 17 22 17 129 l0 123 -50 -11 c-60 -12 -99 -1
-117 34 -9 18 -13 83 -13 218 l0 192 90 0 90 0 0 110 0 110 -90 0 -90 0 0 155
0 155 -72 -2 c-40 -1 -117 -4 -170 -5z"/>
<path d="M2920 7151 c0 -6 4 -13 10 -16 6 -3 7 1 4 9 -7 18 -14 21 -14 7z"/>
<path d="M2866 7115 c-3 -8 -1 -15 4 -15 6 0 10 7 10 15 0 8 -2 15 -4 15 -2 0
-6 -7 -10 -15z"/>
<path d="M3957 7075 c-15 -10 -15 -14 -3 -18 8 -3 20 0 26 8 15 18 -1 26 -23
10z"/>
<path d="M2794 7038 l-19 -23 23 19 c12 11 22 21 22 23 0 8 -8 2 -26 -19z"/>
<path d="M3855 7000 c3 -5 8 -10 11 -10 2 0 4 5 4 10 0 6 -5 10 -11 10 -5 0
-7 -4 -4 -10z"/>
<path d="M2719 6963 c-13 -16 -12 -17 4 -4 9 7 17 15 17 17 0 8 -8 3 -21 -13z"/>
<path d="M2756 6971 c-3 -4 4 -7 14 -6 27 2 33 10 10 12 -11 1 -22 -2 -24 -6z"/>
<path d="M3837 6957 c-3 -8 0 -14 7 -14 7 0 13 6 13 14 0 7 -4 13 -8 13 -4 0
-9 -6 -12 -13z"/>
<path d="M2645 6890 c-2 -3 9 -6 25 -6 17 0 27 2 25 5 -8 7 -45 9 -50 1z"/>
<path d="M3761 6857 c-13 -21 -12 -21 5 -5 10 10 16 20 13 22 -3 3 -11 -5 -18
-17z"/>
<path d="M6864 6865 c-87 -19 -140 -49 -209 -119 -93 -95 -135 -201 -135 -344
1 -173 69 -306 202 -393 84 -54 163 -72 289 -67 144 7 203 30 290 117 64 65
104 140 111 211 3 25 1 25 -87 32 -49 3 -118 9 -151 12 l-61 6 -6 -38 c-7 -40
-46 -85 -85 -97 -32 -9 -88 12 -107 41 -27 42 -41 172 -27 267 13 88 33 126
74 141 56 20 111 -18 131 -91 13 -50 3 -49 191 -31 l128 11 -6 40 c-10 62 -51
139 -103 191 -105 107 -268 148 -439 111z"/>
<path d="M7890 6869 c-76 -13 -165 -57 -225 -111 -203 -185 -205 -529 -4 -702
96 -83 200 -116 360 -116 170 0 285 45 379 146 36 39 90 137 90 163 0 5 -55
11 -122 15 -68 4 -141 9 -164 12 -40 6 -41 5 -56 -35 -20 -50 -67 -81 -126
-81 -83 0 -129 45 -134 131 l-3 44 303 3 302 2 0 68 c0 181 -94 343 -243 419
-94 47 -228 63 -357 42z m179 -212 c34 -17 58 -55 66 -104 l7 -43 -131 0
c-146 0 -141 -3 -121 72 15 52 61 88 113 88 23 0 53 -6 66 -13z"/>
<path d="M10956 6869 c-55 -13 -103 -45 -137 -92 l-29 -40 0 61 0 62 -165 0
-165 0 2 -597 3 -598 175 0 175 0 5 188 5 189 25 -27 c69 -75 223 -99 325 -51
84 39 139 103 182 212 26 66 27 77 27 234 0 145 -3 172 -22 225 -70 190 -221
277 -406 234z m21 -241 c12 -12 28 -37 35 -57 17 -49 16 -284 -1 -333 -31 -93
-137 -105 -180 -21 -15 29 -15 354 0 387 15 31 66 58 99 50 14 -3 35 -15 47
-26z"/>
<path d="M11893 6865 c-86 -19 -173 -67 -231 -129 -101 -107 -137 -207 -130
-367 3 -87 7 -104 41 -172 61 -124 164 -206 304 -242 74 -19 242 -19 316 0
123 32 231 114 282 215 43 85 42 86 -87 94 -62 4 -137 9 -165 12 -46 6 -53 4
-53 -11 0 -31 -40 -83 -72 -94 -39 -14 -86 -14 -126 0 -37 13 -72 77 -72 132
l0 37 306 0 307 0 -7 85 c-12 156 -63 264 -166 350 -107 90 -285 125 -447 90z
m198 -211 c34 -17 59 -66 59 -114 l0 -30 -125 0 -125 0 0 33 c0 43 29 99 60
114 34 17 95 16 131 -3z"/>
<path d="M13139 6866 c-65 -23 -104 -61 -137 -133 l-17 -38 -3 83 -3 82 -144
0 -145 0 0 -455 0 -455 170 0 170 0 0 248 c0 237 1 249 23 286 36 64 67 81
148 81 l69 0 0 158 0 157 -47 0 c-27 -1 -64 -7 -84 -14z"/>
<path d="M14435 6866 c-125 -25 -215 -88 -262 -180 -50 -98 -27 -229 51 -308
43 -42 140 -74 297 -99 152 -23 189 -37 189 -70 0 -28 -55 -49 -132 -49 -86 0
-137 16 -173 54 l-30 33 -100 -14 c-55 -7 -117 -17 -137 -21 l-38 -7 24 -50
c67 -143 213 -215 438 -215 162 0 275 33 364 105 120 99 133 295 26 408 -61
65 -124 86 -336 112 -146 18 -169 26 -164 58 4 29 43 47 103 47 66 0 113 -14
144 -44 l26 -24 124 23 c68 14 126 27 129 30 11 11 -31 75 -74 115 -58 53
-114 80 -203 96 -92 16 -185 16 -266 0z"/>
<path d="M3700 6866 c0 -2 8 -10 18 -17 15 -13 16 -12 3 4 -13 16 -21 21 -21
13z"/>
<path d="M2595 6839 c-4 -6 -4 -13 -1 -16 3 -4 6 -1 6 6 0 8 6 11 16 7 8 -3
12 -2 9 4 -8 13 -22 13 -30 -1z"/>
<path d="M3706 6805 c-3 -9 -10 -14 -14 -11 -5 3 -9 -2 -9 -10 0 -12 5 -11 21
5 11 11 17 23 14 26 -3 3 -8 -1 -12 -10z"/>
<path d="M2520 6791 c0 -6 4 -12 8 -15 5 -3 9 1 9 9 0 8 -4 15 -9 15 -4 0 -8
-4 -8 -9z"/>
<path d="M3620 6755 c0 -5 5 -17 10 -25 5 -8 10 -10 10 -5 0 6 -5 17 -10 25
-5 8 -10 11 -10 5z"/>
<path d="M2476 6738 c3 -5 10 -6 15 -3 13 9 11 12 -6 12 -8 0 -12 -4 -9 -9z"/>
<path d="M2465 6710 c-3 -5 -1 -10 4 -10 6 0 11 5 11 10 0 6 -2 10 -4 10 -3 0
-8 -4 -11 -10z"/>
<path d="M3525 6650 c-8 -13 15 -24 27 -12 6 6 4 11 -6 15 -8 3 -18 2 -21 -3z"/>
<path d="M2350 6616 c0 -2 8 -10 18 -17 15 -13 16 -12 3 4 -13 16 -21 21 -21
13z"/>
<path d="M3460 6600 c-8 -5 -12 -12 -9 -15 4 -3 12 1 19 10 14 17 11 19 -10 5z"/>
<path d="M3485 6590 c-10 -11 -16 -22 -14 -24 2 -2 12 7 22 20 22 29 17 32 -8
4z"/>
<path d="M2320 6593 c0 -6 8 -17 18 -24 16 -13 16 -13 2 6 -8 11 -16 22 -17
24 -2 2 -3 0 -3 -6z"/>
<path d="M2340 6596 c0 -2 8 -10 18 -17 15 -13 16 -12 3 4 -13 16 -21 21 -21
13z"/>
<path d="M3410 6550 c7 -4 17 -14 22 -21 8 -11 9 -10 5 3 -3 9 -1 19 6 21 7 2
-1 4 -17 4 -17 0 -23 -3 -16 -7z"/>
<path d="M3384 6536 c11 -9 24 -16 30 -16 12 0 7 5 -24 19 -24 11 -24 11 -6
-3z"/>
<path d="M3326 6435 c-11 -8 -17 -17 -14 -20 2 -3 13 4 23 15 21 23 18 25 -9
5z"/>
<path d="M2173 6413 c0 -7 4 -13 7 -13 4 0 12 6 18 13 8 10 6 13 -7 13 -10 0
-18 -6 -18 -13z"/>
<path d="M2100 6369 c0 -5 5 -7 10 -4 6 3 10 8 10 11 0 2 -4 4 -10 4 -5 0 -10
-5 -10 -11z"/>
<path d="M3203 6345 c0 -8 4 -12 9 -9 5 3 6 10 3 15 -9 13 -12 11 -12 -6z"/>
<path d="M2036 6302 c-3 -5 1 -9 9 -9 8 0 12 4 9 9 -3 4 -7 8 -9 8 -2 0 -6 -4
-9 -8z"/>
<path d="M3150 6279 c0 -5 5 -7 10 -4 6 3 10 8 10 11 0 2 -4 4 -10 4 -5 0 -10
-5 -10 -11z"/>
<path d="M2008 6258 c10 -13 10 -17 0 -21 -9 -4 -9 -6 -1 -6 20 -2 24 16 5 30
-15 13 -16 12 -4 -3z"/>
<path d="M3106 6218 c3 -5 10 -6 15 -3 13 9 11 12 -6 12 -8 0 -12 -4 -9 -9z"/>
<path d="M2040 6195 c13 -14 26 -25 28 -25 3 0 -5 11 -18 25 -13 14 -26 25
-28 25 -3 0 5 -11 18 -25z"/>
<path d="M3240 6161 c0 -6 4 -13 10 -16 6 -3 7 1 4 9 -7 18 -14 21 -14 7z"/>
<path d="M2120 6156 c0 -2 8 -10 18 -17 15 -13 16 -12 3 4 -13 16 -21 21 -21
13z"/>
<path d="M3026 6138 c3 -5 10 -6 15 -3 13 9 11 12 -6 12 -8 0 -12 -4 -9 -9z"/>
<path d="M2897 6050 c8 -29 19 -33 34 -12 13 15 12 16 -3 3 -16 -12 -18 -11
-18 2 0 9 -4 18 -9 21 -5 4 -7 -3 -4 -14z"/>
<path d="M3365 6030 c3 -5 8 -10 11 -10 2 0 4 5 4 10 0 6 -5 10 -11 10 -5 0
-7 -4 -4 -10z"/>
<path d="M3010 6015 c-7 -9 -11 -17 -9 -20 3 -2 10 5 17 15 14 24 10 26 -8 5z"/>
<path d="M2810 5986 c0 -2 8 -10 18 -17 15 -13 16 -12 3 4 -13 16 -21 21 -21
13z"/>
<path d="M2855 5979 c-4 -6 -5 -12 -2 -15 2 -3 7 2 10 11 7 17 1 20 -8 4z"/>
<path d="M2289 5963 c-13 -16 -12 -17 4 -4 9 7 17 15 17 17 0 8 -8 3 -21 -13z"/>
<path d="M2990 5971 c8 -5 11 -13 7 -17 -3 -4 -13 -1 -21 5 -10 8 -16 9 -21 1
-4 -6 -2 -9 3 -8 6 2 9 -1 9 -7 -1 -5 -8 -9 -16 -8 -9 1 -10 -2 -2 -10 7 -7
15 -7 25 2 8 7 19 10 24 7 5 -3 9 4 8 16 0 12 -8 23 -16 25 -13 4 -13 3 0 -6z"/>
<path d="M3440 5957 c0 -2 6 -10 14 -16 11 -9 16 -9 22 1 4 7 4 10 -1 6 -4 -4
-14 -3 -22 3 -7 6 -13 9 -13 6z"/>
<path d="M2815 5940 c-3 -6 1 -7 9 -4 18 7 21 14 7 14 -6 0 -13 -4 -16 -10z"/>
<path d="M3490 5912 c6 -13 14 -21 18 -18 3 4 -2 14 -12 24 -18 16 -18 16 -6
-6z"/>
<path d="M2351 5911 c-8 -5 -9 -11 -3 -15 5 -3 12 1 16 9 6 17 6 18 -13 6z"/>
<path d="M2717 5857 c-13 -13 -16 -22 -8 -28 6 -5 9 -6 6 -2 -3 3 2 15 12 25
22 25 13 30 -10 5z"/>
<path d="M3540 5860 c0 -5 5 -10 11 -10 5 0 7 5 4 10 -3 6 -8 10 -11 10 -2 0
-4 -4 -4 -10z"/>
<path d="M2835 5839 c-10 -15 3 -25 16 -12 7 7 7 13 1 17 -6 3 -14 1 -17 -5z"/>
<path d="M2871 5834 c0 -11 3 -14 6 -6 3 7 2 16 -1 19 -3 4 -6 -2 -5 -13z"/>
<path d="M2416 5827 c3 -10 9 -15 12 -12 3 3 0 11 -7 18 -10 9 -11 8 -5 -6z"/>
<path d="M2459 5813 c-13 -16 -12 -17 4 -4 9 7 17 15 17 17 0 8 -8 3 -21 -13z"/>
<path d="M2644 5801 c0 -16 5 -28 13 -28 7 0 13 4 13 9 0 4 -5 8 -11 8 -6 0
-9 7 -6 15 4 8 3 17 -2 19 -4 3 -7 -8 -7 -23z"/>
<path d="M3535 5820 c3 -5 8 -10 11 -10 2 0 4 5 4 10 0 6 -5 10 -11 10 -5 0
-7 -4 -4 -10z"/>
<path d="M2809 5818 c-5 -16 -4 -46 2 -42 4 2 7 13 6 24 -1 17 -5 26 -8 18z"/>
<path d="M2792 5740 c0 -14 2 -19 5 -12 2 6 2 18 0 25 -3 6 -5 1 -5 -13z"/>
<path d="M2500 5739 c0 -5 5 -7 10 -4 6 3 10 8 10 11 0 2 -4 4 -10 4 -5 0 -10
-5 -10 -11z"/>
<path d="M2565 5740 c6 -10 4 -12 -9 -7 -10 4 -15 3 -11 -3 8 -13 35 -13 35
-1 0 6 -5 13 -12 17 -7 5 -8 3 -3 -6z"/>
<path d="M3731 5667 c2 -1 13 -9 24 -17 19 -14 19 -14 6 3 -7 9 -18 17 -24 17
-6 0 -8 -1 -6 -3z"/>
<path d="M2680 5649 c0 -5 5 -7 10 -4 6 3 10 8 10 11 0 2 -4 4 -10 4 -5 0 -10
-5 -10 -11z"/>
<path d="M3755 5609 c-4 -6 -5 -12 -2 -15 2 -3 7 2 10 11 7 17 1 20 -8 4z"/>
<path d="M2573 5575 c-3 -9 -3 -18 -1 -21 3 -3 8 4 11 16 6 23 -1 27 -10 5z"/>
<path d="M3694 5569 c-3 -6 -2 -15 3 -20 5 -5 9 -1 9 11 0 23 -2 24 -12 9z"/>
<path d="M3535 5280 l-300 -300 135 -135 134 -135 603 -2 c332 -2 603 -1 603
2 0 6 -721 723 -825 822 l-50 48 -300 -300z"/>
<path d="M2595 5560 c-3 -5 -1 -10 4 -10 6 0 11 5 11 10 0 6 -2 10 -4 10 -3 0
-8 -4 -11 -10z"/>
<path d="M2543 5535 c4 -5 -3 -15 -15 -22 -13 -7 -18 -12 -12 -13 5 0 18 6 29
13 15 12 16 15 4 22 -8 5 -10 4 -6 0z"/>
<path d="M3609 5493 c-13 -16 -12 -17 4 -4 9 7 17 15 17 17 0 8 -8 3 -21 -13z"/>
<path d="M3600 5450 c-6 -11 -8 -20 -6 -20 3 0 10 9 16 20 6 11 8 20 6 20 -3
0 -10 -9 -16 -20z"/>
<path d="M3535 5420 c-14 -16 -16 -23 -7 -32 9 -9 15 -9 25 1 10 10 9 11 -5 6
-23 -9 -23 3 -1 27 9 10 14 18 11 18 -3 0 -13 -9 -23 -20z"/>
<path d="M2417 5409 c7 -7 15 -10 18 -7 3 3 -2 9 -12 12 -14 6 -15 5 -6 -5z"/>
<path d="M2361 5347 c-13 -21 -12 -21 5 -5 10 10 16 20 13 22 -3 3 -11 -5 -18
-17z"/>
<path d="M5250 5035 l0 -335 4885 0 4885 0 0 335 0 335 -4885 0 -4885 0 0
-335z m1138 155 c31 -19 66 -76 56 -92 -10 -15 -55 -8 -61 10 -11 32 -36 52
-65 52 -57 0 -87 -64 -74 -158 12 -94 106 -125 136 -46 8 20 16 25 38 22 21
-2 26 -8 24 -23 -15 -81 -123 -118 -200 -69 -33 22 -62 90 -62 149 0 134 109
215 208 155z m350 0 c27 -17 62 -70 62 -95 0 -3 -13 -5 -30 -5 -20 0 -30 5
-30 15 0 23 -37 55 -64 55 -14 0 -37 -10 -51 -22 -53 -47 -41 -192 19 -219 34
-16 82 4 90 37 5 20 12 25 34 22 21 -2 26 -8 24 -23 -14 -81 -123 -119 -198
-70 -39 26 -57 73 -57 151 0 85 21 130 73 156 46 23 87 23 128 -2z m363 -3
c69 -46 91 -160 47 -247 -52 -102 -186 -103 -234 -2 -25 54 -22 161 7 208 39
64 119 82 180 41z m2024 9 c30 -13 65 -58 65 -86 0 -5 -13 -10 -30 -10 -19 0
-30 5 -30 14 0 20 -39 46 -68 46 -12 0 -34 -11 -47 -25 -22 -21 -25 -33 -25
-95 0 -66 2 -74 29 -101 46 -46 111 -34 111 21 0 25 -4 29 -32 32 -25 2 -34 8
-36 26 -3 21 0 22 62 22 l66 0 0 -70 c0 -68 -1 -70 -32 -87 -18 -9 -56 -17
-85 -17 -93 -2 -143 59 -143 174 0 81 22 129 70 152 42 22 79 23 125 4z m500
0 c34 -15 71 -68 60 -86 -11 -18 -52 -11 -58 10 -12 45 -107 51 -115 7 -4 -19
24 -57 40 -57 5 0 32 -10 59 -21 78 -34 100 -93 54 -148 -50 -58 -176 -46
-210 20 -21 40 -19 49 15 49 19 0 30 -5 30 -14 0 -37 74 -57 109 -29 38 31 21
58 -50 84 -62 23 -109 66 -109 99 0 77 90 121 175 86z m1563 -6 c31 -19 66
-76 56 -92 -10 -15 -55 -8 -61 10 -11 32 -36 52 -65 52 -57 0 -87 -64 -74
-158 12 -94 106 -125 136 -46 8 20 16 25 38 22 21 -2 26 -8 24 -23 -15 -81
-123 -118 -200 -69 -33 22 -62 90 -62 149 0 134 109 215 208 155z m648 5 c33
-14 69 -68 58 -87 -11 -18 -51 -7 -62 17 -23 51 -116 41 -110 -12 3 -23 12
-31 63 -50 77 -30 109 -61 109 -107 0 -63 -66 -104 -144 -91 -76 13 -139 105
-71 105 20 0 30 -6 34 -20 11 -43 95 -51 117 -11 16 32 1 49 -61 72 -77 28
-109 58 -109 102 0 39 14 61 55 82 38 19 76 19 121 0z m-5823 -98 c21 -56 49
-130 62 -164 l24 -63 -33 0 c-29 0 -34 4 -42 33 -10 32 -11 32 -76 35 l-66 3
-13 -36 c-11 -29 -18 -35 -41 -35 -15 0 -28 4 -28 8 0 4 25 73 55 152 31 80
57 151 60 158 2 6 17 12 32 12 26 0 30 -6 66 -103z m1318 -23 c4 -118 5 -127
28 -145 28 -23 49 -24 79 -3 21 14 22 22 22 145 l0 129 30 0 30 0 0 -136 0
-136 -28 -28 c-55 -54 -150 -48 -196 13 -18 25 -21 45 -24 158 l-4 129 30 0
30 0 3 -126z m435 21 c34 -54 67 -101 74 -103 9 -3 11 23 8 99 l-3 104 28 3
27 3 0 -165 0 -166 -27 0 c-25 0 -36 14 -98 112 l-70 113 -3 -113 -3 -112 -29
0 -30 0 0 166 0 165 32 -3 c29 -3 39 -13 94 -103z m494 80 c0 -23 -3 -25 -50
-25 l-50 0 0 -140 0 -140 -30 0 -30 0 0 140 0 140 -50 0 c-47 0 -50 2 -50 25
l0 25 130 0 130 0 0 -25z m160 -140 l0 -165 -30 0 -30 0 0 165 0 165 30 0 30
0 0 -165z m255 53 l70 -113 3 113 3 112 29 0 30 0 0 -165 0 -165 -29 0 c-31 0
-26 -5 -137 165 l-39 60 -3 -112 -3 -113 -29 0 -30 0 0 165 0 165 33 0 c30 0
36 -6 102 -112z m1335 87 c0 -25 -1 -25 -81 -25 l-80 0 3 -42 3 -43 68 -3 c58
-3 67 -5 67 -22 0 -17 -9 -19 -67 -22 l-68 -3 -3 -47 -3 -48 80 0 c80 0 81 0
81 -25 l0 -25 -110 0 -110 0 0 165 0 165 110 0 110 0 0 -25z m291 10 c56 -29
65 -100 19 -146 l-29 -30 34 -63 c19 -34 35 -66 35 -69 0 -4 -14 -7 -30 -7
-27 0 -33 7 -62 65 -30 60 -35 65 -65 65 l-33 0 0 -65 0 -65 -30 0 -30 0 0
165 0 165 80 0 c54 0 91 -5 111 -15z m224 -111 l39 -127 41 124 c41 123 42
124 75 127 24 3 31 0 28 -10 -123 -347 -110 -319 -142 -316 -29 3 -32 8 -88
163 -32 88 -58 161 -58 163 0 1 15 2 33 2 l32 0 40 -126z m345 -39 l0 -165
-30 0 -30 0 0 165 0 165 30 0 30 0 0 -165z m700 140 c0 -25 -1 -25 -81 -25
l-80 0 3 -42 3 -43 68 -3 c58 -3 67 -5 67 -22 0 -17 -9 -19 -67 -22 l-68 -3
-3 -47 -3 -48 80 0 c80 0 81 0 81 -25 l0 -25 -110 0 -110 0 0 165 0 165 110 0
110 0 0 -25z m811 -13 c39 -44 39 -90 0 -134 -25 -29 -35 -32 -95 -36 l-66 -4
0 -59 c0 -59 0 -59 -30 -59 l-30 0 0 166 0 166 96 -4 c94 -3 96 -4 125 -36z
m205 -81 c21 -66 41 -118 45 -115 4 2 24 56 44 119 l37 115 34 0 33 0 -23 -62
c-13 -35 -40 -109 -61 -165 -35 -97 -39 -103 -65 -103 -26 0 -29 6 -87 165
l-60 165 33 0 33 0 37 -119z m514 94 c0 -23 -3 -25 -50 -25 l-50 0 0 -140 0
-140 -30 0 -30 0 0 140 0 140 -50 0 c-47 0 -50 2 -50 25 l0 25 130 0 130 0 0
-25z m420 -115 l0 -140 75 0 c73 0 75 -1 75 -25 l0 -25 -105 0 -105 0 0 165 0
165 30 0 30 0 0 -140z m440 115 c0 -23 -3 -25 -50 -25 l-50 0 0 -140 0 -140
-30 0 -30 0 0 140 0 140 -50 0 c-47 0 -50 2 -50 25 l0 25 130 0 130 0 0 -25z
m278 5 c50 -31 72 -75 72 -146 0 -111 -62 -167 -180 -162 l-65 3 -3 163 -2
162 72 0 c55 0 81 -5 106 -20z m-1044 -273 c8 -14 8 -20 -4 -27 -22 -14 -40
-12 -46 5 -16 41 27 60 50 22z m1271 -7 c0 -18 -6 -26 -23 -28 -13 -2 -25 3
-28 12 -10 26 4 48 28 44 17 -2 23 -10 23 -28z"/>
<path d="M6985 5136 c-46 -46 -41 -176 8 -211 30 -21 51 -19 83 8 51 44 42
197 -13 218 -37 14 -52 11 -78 -15z"/>
<path d="M5926 5068 c-10 -29 -21 -59 -23 -65 -4 -9 8 -13 42 -13 45 0 47 1
41 24 -3 13 -14 42 -23 65 l-18 42 -19 -53z"/>
<path d="M10170 5100 l0 -50 44 0 c48 0 76 19 76 50 0 31 -28 50 -76 50 l-44
0 0 -50z"/>
<path d="M12220 5095 l0 -55 43 0 c51 0 87 22 87 54 0 36 -30 56 -83 56 l-47
0 0 -55z"/>
<path d="M14121 5035 l-2 -115 30 0 c72 0 101 36 101 126 0 70 -28 104 -88
104 l-40 0 -1 -115z"/>
<path d="M3466 5315 c-11 -8 -15 -15 -9 -15 6 0 16 7 23 15 16 19 11 19 -14 0z"/>
<path d="M2370 5295 c-7 -9 -8 -15 -2 -15 5 0 12 7 16 15 3 8 4 15 2 15 -2 0
-9 -7 -16 -15z"/>
<path d="M2295 5270 c3 -5 8 -10 11 -10 2 0 4 5 4 10 0 6 -5 10 -11 10 -5 0
-7 -4 -4 -10z"/>
<path d="M3399 5243 c-13 -16 -12 -17 4 -4 9 7 17 15 17 17 0 8 -8 3 -21 -13z"/>
<path d="M2265 5240 c-3 -5 -2 -10 4 -10 5 0 13 5 16 10 3 6 2 10 -4 10 -5 0
-13 -4 -16 -10z"/>
<path d="M2215 5230 c-3 -5 -1 -10 4 -10 6 0 11 5 11 10 0 6 -2 10 -4 10 -3 0
-8 -4 -11 -10z"/>
<path d="M2205 5189 c-4 -6 2 -19 14 -30 12 -11 21 -15 21 -9 0 6 -7 13 -15
16 -8 4 -15 11 -15 16 0 6 7 8 15 4 8 -3 15 -1 15 4 0 13 -27 13 -35 -1z"/>
<path d="M2139 5153 l-24 -28 28 24 c25 23 32 31 24 31 -2 0 -14 -12 -28 -27z"/>
<path d="M3285 5139 c-4 -6 -5 -12 -2 -15 2 -3 7 2 10 11 7 17 1 20 -8 4z"/>
<path d="M2156 5128 c3 -5 10 -6 15 -3 13 9 11 12 -6 12 -8 0 -12 -4 -9 -9z"/>
<path d="M2090 5105 c-11 -13 -10 -14 4 -9 9 3 16 10 16 15 0 13 -6 11 -20 -6z"/>
<path d="M2084 5065 c-5 -13 -9 -13 -23 -3 -14 12 -15 11 -2 -4 16 -22 13 -22
34 2 9 11 12 20 7 20 -6 0 -13 -7 -16 -15z"/>
<path d="M3207 5066 c-4 -10 -1 -13 8 -9 8 3 12 9 9 14 -7 12 -11 11 -17 -5z"/>
<path d="M2105 5050 c-3 -5 -1 -10 4 -10 6 0 11 5 11 10 0 6 -2 10 -4 10 -3 0
-8 -4 -11 -10z"/>
<path d="M2009 5023 c-13 -16 -12 -17 4 -4 9 7 17 15 17 17 0 8 -8 3 -21 -13z"/>
<path d="M3165 5020 c3 -5 8 -10 11 -10 2 0 4 5 4 10 0 6 -5 10 -11 10 -5 0
-7 -4 -4 -10z"/>
<path d="M3086 4935 c-9 -14 -15 -25 -13 -25 2 0 13 11 25 25 12 14 18 25 13
25 -5 0 -16 -11 -25 -25z"/>
<path d="M1895 4901 c-3 -5 -2 -12 3 -15 5 -3 9 1 9 9 0 17 -3 19 -12 6z"/>
<path d="M3024 4874 c-18 -14 -18 -15 4 -4 12 6 22 13 22 15 0 8 -5 6 -26 -11z"/>
<path d="M2906 4758 c3 -5 10 -6 15 -3 13 9 11 12 -6 12 -8 0 -12 -4 -9 -9z"/>
</g>
</svg>
